<?xml version="1.0" ?><svg height="60px" version="1.1" viewBox="0 0 38 60" width="38px" xmlns="http://www.w3.org/2000/svg" xmlns:xlink="http://www.w3.org/1999/xlink"><title/><desc/><defs/><g fill="none" fill-rule="evenodd" id="Page-1" stroke="none" stroke-width="1"><g fill="#000000" id="Icons" transform="translate(-851.000000, -690.000000)"><g id="37--Carpet--(households,-furniture,-belongings)" transform="translate(851.000000, 690.000000)"><path d="M34,52 C34,52.552 33.553,53 33,53 L5,53 C4.447,53 4,52.552 4,52 L4,8 C4,7.448 4.447,7 5,7 L33,7 C33.553,7 34,7.448 34,8 L34,52 Z M37,0 C36.447,0 36,0.448 36,1 L36,3 L34,3 L34,1 C34,0.448 33.553,0 33,0 C32.447,0 32,0.448 32,1 L32,3 L30,3 L30,1 C30,0.448 29.553,0 29,0 C28.447,0 28,0.448 28,1 L28,3 L26,3 L26,1 C26,0.448 25.553,0 25,0 C24.447,0 24,0.448 24,1 L24,3 L22,3 L22,1 C22,0.448 21.553,0 21,0 C20.447,0 20,0.448 20,1 L20,3 L18,3 L18,1 C18,0.448 17.553,0 17,0 C16.447,0 16,0.448 16,1 L16,3 L14,3 L14,1 C14,0.448 13.553,0 13,0 C12.447,0 12,0.448 12,1 L12,3 L10,3 L10,1 C10,0.448 9.553,0 9,0 C8.447,0 8,0.448 8,1 L8,3 L6,3 L6,1 C6,0.448 5.553,0 5,0 C4.447,0 4,0.448 4,1 L4,3 L2,3 L2,1 C2,0.448 1.553,0 1,0 C0.447,0 0,0.448 0,1 L0,4 L0,56 L0,59 C0,59.552 0.447,60 1,60 C1.553,60 2,59.552 2,59 L2,57 L4,57 L4,59 C4,59.552 4.447,60 5,60 C5.553,60 6,59.552 6,59 L6,57 L8,57 L8,59 C8,59.552 8.447,60 9,60 C9.553,60 10,59.552 10,59 L10,57 L12,57 L12,59 C12,59.552 12.447,60 13,60 C13.553,60 14,59.552 14,59 L14,57 L16,57 L16,59 C16,59.552 16.447,60 17,60 C17.553,60 18,59.552 18,59 L18,57 L20,57 L20,59 C20,59.552 20.447,60 21,60 C21.553,60 22,59.552 22,59 L22,57 L24,57 L24,59 C24,59.552 24.447,60 25,60 C25.553,60 26,59.552 26,59 L26,57 L28,57 L28,59 C28,59.552 28.447,60 29,60 C29.553,60 30,59.552 30,59 L30,57 L32,57 L32,59 C32,59.552 32.447,60 33,60 C33.553,60 34,59.552 34,59 L34,57 L36,57 L36,59 C36,59.552 36.447,60 37,60 C37.553,60 38,59.552 38,59 L38,56 L38,4 L38,1 C38,0.448 37.553,0 37,0 L37,0 Z" id="Fill-15"/><path d="M23.707,20.707 L19.707,24.707 C19.512,24.902 19.256,25 19,25 C18.744,25 18.488,24.902 18.293,24.707 L14.293,20.707 C13.902,20.316 13.902,19.684 14.293,19.293 L18.293,15.293 C18.684,14.902 19.316,14.902 19.707,15.293 L23.707,19.293 C24.098,19.684 24.098,20.316 23.707,20.707 L23.707,20.707 Z M23.707,40.707 L19.707,44.707 C19.512,44.902 19.256,45 19,45 C18.744,45 18.488,44.902 18.293,44.707 L14.293,40.707 C13.902,40.316 13.902,39.684 14.293,39.293 L18.293,35.293 C18.684,34.902 19.316,34.902 19.707,35.293 L23.707,39.293 C24.098,39.684 24.098,40.316 23.707,40.707 L23.707,40.707 Z M29.707,11.293 C30.098,11.684 30.098,12.316 29.707,12.707 L25.707,16.707 C25.512,16.902 25.256,17 25,17 C24.744,17 24.488,16.902 24.293,16.707 L20.293,12.707 C19.902,12.316 19.902,11.684 20.293,11.293 L22.586,9 L15.414,9 L17.707,11.293 C18.098,11.684 18.098,12.316 17.707,12.707 L13.707,16.707 C13.512,16.902 13.256,17 13,17 C12.744,17 12.488,16.902 12.293,16.707 L8.293,12.707 C7.902,12.316 7.902,11.684 8.293,11.293 L10.586,9 L6,9 L6,27.586 L8.293,25.293 C8.684,24.902 9.316,24.902 9.707,25.293 L13.707,29.293 C14.098,29.684 14.098,30.316 13.707,30.707 L9.707,34.707 C9.512,34.902 9.256,35 9,35 C8.744,35 8.488,34.902 8.293,34.707 L6,32.414 L6,51 L10.586,51 L8.293,48.707 C7.902,48.316 7.902,47.684 8.293,47.293 L12.293,43.293 C12.684,42.902 13.316,42.902 13.707,43.293 L17.707,47.293 C18.098,47.684 18.098,48.316 17.707,48.707 L15.414,51 L22.586,51 L20.293,48.707 C19.902,48.316 19.902,47.684 20.293,47.293 L24.293,43.293 C24.684,42.902 25.316,42.902 25.707,43.293 L29.707,47.293 C30.098,47.684 30.098,48.316 29.707,48.707 L27.414,51 L32,51 L32,32.414 L29.707,34.707 C29.512,34.902 29.256,35 29,35 C28.744,35 28.488,34.902 28.293,34.707 L24.293,30.707 C23.902,30.316 23.902,29.684 24.293,29.293 L28.293,25.293 C28.684,24.902 29.316,24.902 29.707,25.293 L32,27.586 L32,9 L27.414,9 L29.707,11.293 Z" id="Fill-17"/><polygon id="Fill-19" points="25 45.4141 22.414 48.0001 25 50.5861 27.586 48.0001"/><polygon id="Fill-21" points="13 45.4141 10.414 48.0001 13 50.5861 15.586 48.0001"/><polygon id="Fill-23" points="16.4141 40 19.0001 42.586 21.5861 40 19.0001 37.414"/><polygon id="Fill-25" points="16.4141 20 19.0001 22.586 21.5861 20 19.0001 17.414"/><polygon id="Fill-27" points="25 14.5859 27.586 11.9999 25 9.4139 22.414 11.9999"/><polygon id="Fill-29" points="26.4141 30 29.0001 32.586 31.5861 30 29.0001 27.414"/><polygon id="Fill-31" points="11.5859 30 8.9999 27.414 6.4139 30 8.9999 32.586"/><polygon id="Fill-33" points="13 14.5859 15.586 11.9999 13 9.4139 10.414 11.9999"/></g></g></g></svg>