<?xml version="1.0" ?><svg enable-background="new 0 0 64 64" id="Layer_1" version="1.1" viewBox="0 0 64 64" xml:space="preserve" xmlns="http://www.w3.org/2000/svg" xmlns:xlink="http://www.w3.org/1999/xlink"><g><g><path d="M28.763,20.529c-0.629-0.629-1.649-0.629-2.28,0l-3.988,3.988l-2.501-4.125c0,0-1.168-1.19-4.397-1.846    l-1.913,4.649l-0.317-2.679l0.707-1.066c0.141-0.242,0.101-0.557-0.119-0.76c-0.116-0.108-0.276-0.158-0.435-0.158h-1.323    c-0.168,0-0.334,0.058-0.453,0.176c-0.203,0.202-0.236,0.507-0.1,0.742l0.707,1.066l-0.317,2.682l-1.88-4.572    c-2.94,0.686-4.239,1.73-4.239,1.73l-4.04,6.279c-0.338,0.525-0.342,1.197-0.012,1.726l4.04,6.464    c0.298,0.477,0.803,0.741,1.325,0.756v17.987c0,1.135,0.92,2.055,2.055,2.055h0c1.068,0,1.958-0.818,2.048-1.883l0.926-13.483    c0.052-0.309,0.309-0.567,0.619-0.567c0.309,0,0.619,0.258,0.619,0.567l1.185,13.701c0.099,0.971,0.915,1.708,1.892,1.708    c0.525,0,0.999-0.213,1.344-0.557c0.344-0.344,0.557-0.819,0.557-1.344V27.261c0-0.049,0.006-0.097,0.019-0.143v-2.989    l1.399,2.483c0,0,0.464,1.075,1.135,1.656c0.337,0.291,0.727,0.472,1.14,0.472c0.413,0,0.825-0.157,1.14-0.472l5.459-5.459    C29.392,22.178,29.392,21.158,28.763,20.529z M7.228,30.863l-2.09-3.343l2.09-3.248V30.863z" fill="#3C4752"/><path d="M28.763,20.529c-0.629-0.629-1.649-0.629-2.28,0l-3.988,3.988l-2.501-4.125c0,0-1.168-1.19-4.397-1.846    l-1.913,4.649l-0.317-2.679l0.707-1.066c0.141-0.242,0.101-0.557-0.119-0.76c-0.116-0.108-0.276-0.158-0.435-0.158h-1.323    c-0.168,0-0.334,0.058-0.453,0.176c-0.203,0.202-0.236,0.507-0.1,0.742l0.707,1.066l-0.317,2.682l-1.88-4.572    c-2.94,0.686-4.239,1.73-4.239,1.73l-4.04,6.279c-0.338,0.525-0.342,1.197-0.012,1.726l4.04,6.464    c0.298,0.477,0.803,0.741,1.325,0.756v17.987c0,1.135,0.92,2.055,2.055,2.055h0c1.068,0,1.958-0.818,2.048-1.883l0.926-13.483    c0.052-0.309,0.309-0.567,0.619-0.567c0.309,0,0.619,0.258,0.619,0.567l1.185,13.701c0.099,0.971,0.915,1.708,1.892,1.708    c0.525,0,0.999-0.213,1.344-0.557c0.344-0.344,0.557-0.819,0.557-1.344V27.261c0-0.049,0.006-0.097,0.019-0.143v-2.989    l1.399,2.483c0,0,0.464,1.075,1.135,1.656c0.337,0.291,0.727,0.472,1.14,0.472c0.413,0,0.825-0.157,1.14-0.472l5.459-5.459    C29.392,22.178,29.392,21.158,28.763,20.529z M7.228,30.863l-2.09-3.343l2.09-3.248V30.863z" fill="#3C4752"/><path d="M28.763,20.529c-0.629-0.629-1.649-0.629-2.28,0l-3.988,3.988l-2.501-4.125c0,0-1.168-1.19-4.397-1.846    l-1.913,4.649l-0.317-2.679l0.707-1.066c0.141-0.242,0.101-0.557-0.119-0.76c-0.116-0.108-0.276-0.158-0.435-0.158h-1.323    c-0.168,0-0.334,0.058-0.453,0.176c-0.203,0.202-0.236,0.507-0.1,0.742l0.707,1.066l-0.317,2.682l-1.88-4.572    c-2.94,0.686-4.239,1.73-4.239,1.73l-4.04,6.279c-0.338,0.525-0.342,1.197-0.012,1.726l4.04,6.464    c0.298,0.477,0.803,0.741,1.325,0.756v17.987c0,1.135,0.92,2.055,2.055,2.055h0c1.068,0,1.958-0.818,2.048-1.883l0.926-13.483    c0.052-0.309,0.309-0.567,0.619-0.567c0.309,0,0.619,0.258,0.619,0.567l1.185,13.701c0.099,0.971,0.915,1.708,1.892,1.708    c0.525,0,0.999-0.213,1.344-0.557c0.344-0.344,0.557-0.819,0.557-1.344V27.261c0-0.049,0.006-0.097,0.019-0.143v-2.989    l1.399,2.483c0,0,0.464,1.075,1.135,1.656c0.337,0.291,0.727,0.472,1.14,0.472s0.825-0.157,1.14-0.472l5.459-5.459    C29.392,22.178,29.392,21.158,28.763,20.529z M7.228,30.863l-2.09-3.343l2.09-3.248V30.863z" fill="#3C4752"/><circle cx="12.927" cy="12.614" fill="#3C4752" r="4.281"/></g><path d="M60.625,10.036H24.998c-0.97,0-1.757,0.787-1.757,1.757v8.689l1.598-1.598   c0.182-0.181,0.377-0.341,0.583-0.479v-6.503h34.779v24.866H25.422v-7.33l-0.473,0.473c-0.482,0.482-1.069,0.823-1.708,1.004v8.628   c0,0.97,0.787,1.757,1.757,1.757h13.905l-5.115,10.195c-0.493,0.717-0.311,1.698,0.407,2.19c0.717,0.493,1.698,0.311,2.19-0.407   l4.851-9.811v7.475c0,0.87,0.705,1.575,1.575,1.575c0.87,0,1.575-0.705,1.575-1.575v-7.475l4.972,9.811   c0.305,0.445,0.798,0.684,1.3,0.684c0.307,0,0.618-0.09,0.891-0.277c0.717-0.493,0.899-1.473,0.407-2.19L46.72,41.301h13.905   c0.97,0,1.757-0.787,1.757-1.757v-27.75C62.382,10.823,61.595,10.036,60.625,10.036z" fill="#3C4752"/><g><g><rect fill="#2F7ABF" height="1.689" width="7.714" x="47.035" y="18.12"/><rect fill="#2F7ABF" height="1.689" width="10.224" x="47.035" y="21.889"/></g><g><path d="M35.754,23.289h6.271c-0.385-3.282-2.989-5.885-6.271-6.271V23.289z" fill="#2F7ABF"/><path d="M34.065,24.978v-7.96c-1.46,0.171-2.785,0.782-3.841,1.696c0.062,0.055,0.124,0.111,0.183,0.171l0,0     c1.534,1.534,1.534,4.031,0.002,5.567l-2.206,2.206c1.021,2.712,3.638,4.641,6.707,4.641c3.671,0,6.697-2.761,7.115-6.321H34.065     z" fill="#2F7ABF"/></g></g></g></svg>