<?xml version="1.0" ?><svg id="Layer_1" style="enable-background:new 0 0 48 48;" version="1.1" viewBox="0 0 48 48" xml:space="preserve" xmlns="http://www.w3.org/2000/svg" xmlns:xlink="http://www.w3.org/1999/xlink"><g><path d="M33.4,12.9c-1.9-1.7-4.3-2.5-6.7-2.3c-2.5,0.2-4.8,1.3-6.4,3.3c-3.3,3.9-2.9,9.9,0.9,13.3c1.7,1.5,3.9,2.3,6.1,2.3   c0.2,0,0.4,0,0.7,0c2.5-0.2,4.8-1.3,6.4-3.3C37.6,22.3,37.2,16.3,33.4,12.9z M29.1,21.6c-0.4,0.5-1,0.8-1.7,0.8c-0.1,0-0.1,0-0.2,0   c-0.6,0-1.2-0.2-1.6-0.6c-1-0.9-1.1-2.4-0.2-3.4c0.4-0.5,1-0.8,1.7-0.8c0.6,0,1.3,0.2,1.8,0.6C29.8,19.1,29.9,20.6,29.1,21.6z"/><path d="M46.8,1.3c-0.7-0.8-1.9-0.9-2.7-0.1l-9,8.1c0.3,0.2,0.6,0.5,0.9,0.7c0.7,0.6,1.3,1.3,1.8,2l8.9-8   C47.5,3.3,47.6,2.1,46.8,1.3z"/><path d="M28.2,33.4c-0.3,0-0.6,0-0.9,0c-0.1,0-0.3,0-0.4,0l0.6,12.1c0.1,1,0.9,1.9,1.9,1.9c0,0,0.1,0,0.1,0c1.1-0.1,1.9-1,1.8-2   L30.7,33C29.9,33.2,29,33.3,28.2,33.4z"/><path d="M0.7,16.1c-0.2,1.1,0.5,2.1,1.6,2.3l11.9,2.2c0-1.3,0.1-2.6,0.4-3.9L3,14.5C1.9,14.3,0.9,15,0.7,16.1z"/></g></svg>