<?xml version="1.0" ?><!DOCTYPE svg  PUBLIC '-//W3C//DTD SVG 1.1//EN'  'http://www.w3.org/Graphics/SVG/1.1/DTD/svg11.dtd'><svg height="40px" id="el_x5F_appliance" style="enable-background:new 0 0 40 40;" version="1.1" viewBox="0 0 40 40" width="40px" xml:space="preserve" xmlns="http://www.w3.org/2000/svg" xmlns:xlink="http://www.w3.org/1999/xlink"><path d="M33.97,11.983v23.463c0,0.848-0.691,1.54-1.54,1.54H7.516  c-0.848,0-1.54-0.692-1.54-1.54V11.983H33.97z M15.515,20.481l-0.75,1.854l1.886,0.764l0.75-1.855L15.515,20.481L15.515,20.481z   M20.973,14.983v1.204c1.233,0.278,2.273,1.069,2.883,2.139c0.08,0.14,0.079,0.299-0.002,0.438s-0.219,0.22-0.381,0.22h-6.974  c-0.161,0-0.299-0.08-0.381-0.22c-0.08-0.14-0.081-0.299,0-0.438c0.604-1.061,1.634-1.849,2.855-2.134v-1.209H8.975v19.003h21.996  V14.983H20.973L20.973,14.983z M24.489,20.481l-1.886,0.762l0.749,1.855l1.887-0.764L24.489,20.481L24.489,20.481z M24.103,24.953  l0.842,2.086l1.886-0.763l-0.843-2.086L24.103,24.953L24.103,24.953z M25.693,28.894l0.822,2.034l1.886-0.763l-0.821-2.034  L25.693,28.894L25.693,28.894z M18.973,20.984v2h2.034v-2H18.973L18.973,20.984z M21.007,24.985h-2.034v2.25h2.034V24.985  L21.007,24.985z M21.007,29.235h-2.034v2.193h2.034V29.235L21.007,29.235z M15.902,24.953l-1.885-0.763l-0.843,2.086l1.885,0.763  L15.902,24.953L15.902,24.953z M14.311,28.894l-1.886-0.763l-0.821,2.034l1.885,0.763L14.311,28.894L14.311,28.894z M22.559,4.982  c0.828,0,1.5,0.672,1.5,1.5s-0.672,1.5-1.5,1.5s-1.5-0.672-1.5-1.5S21.73,4.982,22.559,4.982L22.559,4.982z M17.387,4.982  c0.828,0,1.499,0.672,1.499,1.5s-0.671,1.5-1.499,1.5c-0.829,0-1.5-0.672-1.5-1.5S16.558,4.982,17.387,4.982L17.387,4.982z   M7.516,2.981c-0.848,0-1.54,0.692-1.54,1.541v5.46H33.97v-5.46c0-0.849-0.691-1.541-1.54-1.541H7.516z" style="fill-rule:evenodd;clip-rule:evenodd;"/></svg>