<?xml version="1.0" ?><svg id="Layer_1" style="enable-background:new 0 0 227.023 241.37;" version="1.1" viewBox="0 0 227.023 241.37" xml:space="preserve" xmlns="http://www.w3.org/2000/svg" xmlns:xlink="http://www.w3.org/1999/xlink"><g><path d="M49.543,133.511c-0.599-4.869-0.64-9.953-0.327-15.061c-14.457-12.969-20.224-30.034-21.167-40.165   c-0.521-5.6,3.61-10.58,9.21-11.102c0.322-0.03,0.644-0.045,0.962-0.045c5.267,0,9.625,3.961,10.135,9.213   c0.097,0.928,2.124,18.111,17.53,29.461c2.428,0.746,4.974,1.234,7.627,1.475l-1.915,2.095c0.956,0.503,1.955,0.98,2.99,1.436   l3.053-3.34c4.209-0.023,8.67-0.629,13.37-1.825c4.282-1.09,6.869-5.445,5.779-9.727c-0.575-2.258-2.061-4.036-3.962-5.061   l11.912-13.028l-0.605-0.554c2.858-2.283,5.205-2.854,7.048-1.609c-0.222,1.461-0.514,3.159-0.822,4.947   c-1.686,9.796-3.994,23.213-0.191,27.727c0.911,1.081,2.114,1.63,3.575,1.63h0.001c0.586,0,1.224-0.091,1.894-0.271   c0.602-0.162,0.951-0.807,1.289-2.38c1.334-6.213,1.913-26.619-4.138-32.282c0.29-2.195,0.11-3.583-0.559-4.357   c-0.363-0.42-0.862-0.642-1.443-0.642c-2.376,0-6.169,4.055-7.916,6.081l-0.475-0.434L89.4,89.909   c-0.768-0.034-1.553,0.039-2.336,0.238c-8.838,2.25-16.008,1.615-21.302-1.892c-7.221-4.781-9.696-13.851-10.308-16.664   c-0.038-0.208-0.082-0.414-0.126-0.619c-0.024-0.128-0.038-0.211-0.041-0.232c-0.091-0.624-0.26-1.217-0.482-1.78   c-1.544-4.952-4.743-8.902-9.316-10.043c-8.537-2.127-20.912,2.508-25.947,17.15c-6.805,20.173-8.268,33.306-5.682,55.52   c1.738,8.94,5.915,13.422,10.854,15.624c0.877,3.112,1.731,6.803,2.34,10.901L2.852,184.59l2.344,2.143l22.37-24.472   c1.657,16.965-1.552,39.3-23.008,56.956c-5.331,4.387-6.096,12.264-1.709,17.595c2.472,3.003,6.051,4.558,9.659,4.558   c2.795,0,5.608-0.934,7.936-2.849c14.296-11.764,24.033-26.187,28.915-42.593c2.486,9.951,4.441,21.233,5.412,33.858   c0.53,6.884,6.553,12.037,13.422,11.505c6.883-0.53,12.034-6.539,11.505-13.422c-3.456-44.926-18.248-75.448-28.41-91.559   l9.03-9.879c-0.95-0.541-1.872-1.1-2.772-1.674L49.543,133.511z M112.502,76.949c5.329,6.884,3.894,29.114,2.584,31.352   c-0.481,0.118-0.931,0.177-1.34,0.177c0,0,0,0-0.001,0c-1.012,0-1.807-0.359-2.428-1.097c-3.353-3.98-1.021-17.535,0.522-26.505   C112.078,79.492,112.306,78.162,112.502,76.949z M110.788,71.546c0.168,0,0.245,0.049,0.309,0.124   c0.146,0.168,0.426,0.718,0.291,2.392c-0.716-0.355-1.484-0.534-2.296-0.534c-0.615,0-1.256,0.105-1.921,0.314   C108.615,72.526,109.988,71.546,110.788,71.546z"/><path d="M69.843,135.704l2.981,0.331c0.105-0.949,0.327-2.308,0.68-3.856c-0.97-0.309-1.918-0.636-2.85-0.977   C70.08,133.675,69.867,135.491,69.843,135.704z"/><path d="M192.887,238.669c0.815,1.461,2.34,2.307,3.931,2.307c0.546,0,1.101-0.1,1.636-0.309c2.094-0.818,3.263-3.056,2.738-5.242   l-6.886-28.674c-5.535-4.765-13.5-12.37-16.522-18.943c-5.901,2.155-11.203,2.324-16.098,1.759   c-27.887-15.131-43.135-37.445-54.197-53.657c-6.079-8.91-10.88-15.947-15.906-18.84c-1.584-0.912-3.111-1.536-4.581-1.889   c1.336,0.818,2.477,1.935,3.328,3.304c0.392,0.631,0.704,1.295,0.948,1.978c4.076,2.994,8.394,9.312,13.734,17.138   c10.258,15.033,24.054,35.221,47.964,50.358c-1.263-0.285-2.504-0.566-3.723-0.817c-1.932-0.792-26.224-11.013-37.102-27.757   c-1.053-1.621-3.221-2.081-4.842-1.028c-1.621,1.053-2.082,3.221-1.028,4.842c6.003,9.241,15.343,16.54,23.549,21.683   c-1.9,0.607-3.329,2.32-3.466,4.431l-2.97,45.624c-0.162,2.486,1.531,4.712,3.971,5.22c0.342,0.071,0.684,0.105,1.021,0.105   c2.07,0,3.977-1.292,4.702-3.308l9.678-26.904c10.22,3.23,25.292,12.008,30.546,11.198c2.314-0.359,5.38-1.707,8.062-3.206   L192.887,238.669z"/><path d="M197.908,205.86c2.076-7.265,4.789-13.205,6.593-13.979c1.88-0.807,7.91,6.789,12.997,5.496s10.574-11.268,9.353-12.709   c-1.221-1.441-1.843-1.444-6.362-2.058c-4.519-0.614-4.83-5.353-6.515-8.591c-0.464-0.892-1.275-1.733-2.2-2.489   c3.007-3.995,6.501-6.82,6.501-6.82s-6.201-2.249-11.354,1.267c0.394-4.727,1.665-8.667,1.665-8.667s-8.991,2.117-9.647,10.894   c-3.161,2.961-12.539,11.54-19.323,15.634C180.528,190.062,190.994,200.049,197.908,205.86z M209.591,176.657   c1.229,0.167,2.091,1.299,1.924,2.528s-1.299,2.091-2.528,1.924s-2.091-1.299-1.924-2.528   C207.23,177.351,208.361,176.49,209.591,176.657z"/><path d="M82.396,34.178c0,4.136-3.365,7.5-7.5,7.5c-4.135,0-7.5-3.365-7.5-7.5c0-0.253,0.013-0.503,0.038-0.75h-26.35   c0.312,12.154,10.256,21.913,22.485,21.913c12.231,0,22.173-9.758,22.485-21.913h-3.696C82.382,33.674,82.396,33.924,82.396,34.178   z"/><path d="M41.117,31.428h26.808c1.1-2.777,3.806-4.75,6.97-4.75c3.164,0,5.871,1.973,6.971,4.75h4.154   c-0.144-2.326-0.642-4.555-1.44-6.637H42.557C41.759,26.873,41.262,29.102,41.117,31.428z"/><path d="M84.14,19.416L82.965,5.332c0,0-6.998-5.332-20.111-5.332C49.743,0,42.743,5.332,42.743,5.332L41.57,19.416H26.479v3.375   h72.75v-3.375H84.14z"/><circle cx="74.895" cy="34.178" r="5.663"/><path d="M83.485,116.079c-33.603-7.842-37.172-38.129-37.317-39.516c-0.426-4.382-4.312-7.603-8.704-7.19   c-4.399,0.41-7.633,4.308-7.224,8.707c1.383,14.851,13.531,45.161,49.609,53.58c0.611,0.143,1.223,0.211,1.825,0.211   c3.634,0,6.922-2.493,7.784-6.184C90.462,121.384,87.787,117.082,83.485,116.079z"/></g></svg>