<?xml version="1.0" ?><!DOCTYPE svg  PUBLIC '-//W3C//DTD SVG 1.1//EN'  'http://www.w3.org/Graphics/SVG/1.1/DTD/svg11.dtd'><svg enable-background="new 0 0 32 32" height="32px" id="Layer_1" version="1.1" viewBox="0 0 32 32" width="32px" xml:space="preserve" xmlns="http://www.w3.org/2000/svg" xmlns:xlink="http://www.w3.org/1999/xlink"><g><defs><rect height="32" id="SVGID_1_" width="32"/></defs><g><defs><rect height="32" id="SVGID_3_" width="32"/></defs><path d="M17.53,22.848c-0.67,0.587-1.863,1.954-1.863,3.859    c0,1.206,0.475,2.315,1.264,3.193c2.936-0.39,5.188-2.61,5.188-5.298c0-2.228-0.707-4.086-1.689-5.596    C20.181,20.087,19.353,21.253,17.53,22.848 M16.542,21.719c1.453-1.271,2.246-2.268,2.424-3.047l0.275-1.199    c-2.133-2.369-4.674-3.502-4.674-3.502c0.76,2.135,0.657,3.671-2.714,6.621c-0.696,0.61-1.936,2.033-1.936,4.012    c0,2.679,2.236,4.889,5.156,5.288c-0.586-0.973-0.906-2.067-0.906-3.184C14.167,24.084,15.827,22.346,16.542,21.719 M3.001,30h4    V12h18v18h4V8h-26V30z M2.001,7h28V2h-28V7z" fill="#231F20"/></g></g></svg>