<?xml version="1.0" ?><!DOCTYPE svg  PUBLIC '-//W3C//DTD SVG 1.1//EN'  'http://www.w3.org/Graphics/SVG/1.1/DTD/svg11.dtd'><svg enable-background="new 0 0 512 512" height="512px" id="Layer_1" version="1.1" viewBox="0 0 512 512" width="512px" xml:space="preserve" xmlns="http://www.w3.org/2000/svg" xmlns:xlink="http://www.w3.org/1999/xlink"><path d="M512,196.875c0-21.328-17.391-38.688-38.766-38.688c-4.422,0-8.797,0.75-12.938,2.203l-7.625,2.672  v-25.516c0-21.312-17.391-38.688-38.766-38.688s-38.766,17.375-38.766,38.688v79.688H136.859v-79.688  c0-21.312-17.391-38.688-38.766-38.688s-38.766,17.375-38.766,38.688v25.531l-7.625-2.688c-4.141-1.453-8.5-2.203-12.938-2.203  C17.391,158.188,0,175.547,0,196.875v118.234c0,21.344,17.391,38.688,38.766,38.688c4.438,0,8.797-0.75,12.938-2.188l7.625-2.688  v25.531c0,21.312,17.391,38.688,38.766,38.688s38.766-17.375,38.766-38.688v-79.688h238.281v79.688  c0,21.312,17.391,38.688,38.766,38.688s38.766-17.375,38.766-38.688v-25.516l7.625,2.672c4.141,1.438,8.516,2.188,12.938,2.188  c21.375,0,38.766-17.344,38.766-38.688V196.875z M59.328,315.109c0,11.312-9.219,20.484-20.562,20.484  c-11.328,0-20.547-9.172-20.547-20.484V196.875c0-11.297,9.219-20.484,20.547-20.484c11.344,0,20.562,9.188,20.562,20.484V315.109z   M118.641,374.453c0,11.281-9.219,20.453-20.547,20.453c-11.344,0-20.562-9.172-20.562-20.453V137.547  c0-11.281,9.219-20.469,20.562-20.469c11.328,0,20.547,9.188,20.547,20.469V374.453z M375.141,276.547H136.859v-41.109h238.281  V276.547z M434.453,374.453c0,11.281-9.219,20.453-20.547,20.453s-20.547-9.172-20.547-20.453V137.547  c0-11.281,9.219-20.469,20.547-20.469s20.547,9.188,20.547,20.469V374.453z M493.781,315.109c0,11.312-9.219,20.484-20.547,20.484  c-11.344,0-20.562-9.172-20.562-20.484V196.875c0-11.297,9.219-20.484,20.562-20.484c11.328,0,20.547,9.188,20.547,20.484V315.109z" id="dumbbell_2_"/></svg>