<?xml version="1.0" ?><svg style="enable-background:new 0 0 512 512;" version="1.1" viewBox="0 0 512 512" xml:space="preserve" xmlns="http://www.w3.org/2000/svg" xmlns:xlink="http://www.w3.org/1999/xlink"><style type="text/css">
	.st0{fill-rule:evenodd;clip-rule:evenodd;fill:#231F20;}
	.st1{fill:#231F20;}
</style><g id="Guides_For_Artboard"/><g id="Layer_1"><path class="st0" d="M32.4,93.3h447.3c17.8,0,32.4,14.6,32.4,32.4v260.7c0,17.8-14.6,32.4-32.4,32.4H32.4   C14.6,418.7,0,404.1,0,386.3V125.7C0,107.9,14.6,93.3,32.4,93.3L32.4,93.3z M55.3,120.5h187.7c12.9,0,23.6,10.7,23.6,24v223.1   c0,13.3-10.7,24-23.6,24H55.3c-12.9,0-23.6-10.7-23.6-24V144.5C31.7,131.2,42.4,120.5,55.3,120.5L55.3,120.5z M369.9,190.8   c-10.4,0-18.8-8.4-18.8-18.8s8.4-18.8,18.8-18.8c10.4,0,18.8,8.4,18.8,18.8S380.3,190.8,369.9,190.8L369.9,190.8z M218.5,190.8   c-10.4,0-18.8-8.4-18.8-18.8s8.4-18.8,18.8-18.8s18.8,8.4,18.8,18.8S228.8,190.8,218.5,190.8L218.5,190.8z M343.7,120.5H458   c12.3,0,22.3,10.4,22.3,22.7v225.7c0,12.3-10,22.7-22.3,22.7H343.7c-12.3,0-22.7-10.4-22.7-22.7V143.2   C321.1,130.9,331.4,120.5,343.7,120.5L343.7,120.5z" id="XMLID_355_"/></g></svg>