<?xml version="1.0" ?><svg id="Layer_1" style="enable-background:new 0 0 48 48;" version="1.1" viewBox="0 0 48 48" xml:space="preserve" xmlns="http://www.w3.org/2000/svg" xmlns:xlink="http://www.w3.org/1999/xlink"><g><path d="M46,24.6h-2.8V5.4c0-3-2.4-5.4-5.4-5.4h-2.2c-2.4,0-4.5,1.6-5.1,3.9h-0.3c-1.9,0-3.4,1.5-3.4,3.4l0,0h8.5l0,0   c0-1.8-1.4-3.3-3.2-3.4c0.6-1.4,2-2.4,3.6-2.4h2.2c2.1,0,3.9,1.7,3.9,3.9v19.2H2c-1.1,0-2,0.9-2,2c0,1.1,0.9,2,2,2H46   c1.1,0,2-0.9,2-2C48,25.5,47.1,24.6,46,24.6z"/><path d="M6.5,42.1c0.7,2.1,2.6,3.4,4.8,3.4h0.2V48h4.2v-2.5h16.8V48h4.2v-2.5h0.2c2.2,0,4.1-1.4,4.8-3.4l3.7-11.4H2.7L6.5,42.1z"/><path d="M26.3,9.6h9.2c0.4,0,0.7-0.3,0.7-0.7s-0.3-0.7-0.7-0.7h-9.2c-0.4,0-0.7,0.3-0.7,0.7S25.9,9.6,26.3,9.6z"/><g><g><g><path d="M28.2,10.1c-0.2-0.1-0.5,0.1-0.5,0.3l-0.1,0.2c-0.1,0.2,0.1,0.5,0.3,0.5c0,0,0.4,0.1,0.5-0.3l0.1-0.2      C28.5,10.4,28.4,10.2,28.2,10.1z"/><path d="M27.2,13.5c-0.2-0.1-0.5,0.1-0.5,0.3l-0.1,0.5c-0.1,0.2,0.1,0.5,0.3,0.5c0,0,0.4,0.1,0.5-0.3l0.1-0.5      C27.5,13.8,27.4,13.6,27.2,13.5z"/><path d="M27.7,11.7c-0.2-0.1-0.5,0.1-0.5,0.3L27,12.5c-0.1,0.2,0.1,0.5,0.3,0.5c0,0,0.4,0.1,0.5-0.3l0.1-0.5      C28.1,12,27.9,11.8,27.7,11.7z"/><path d="M26.1,17.2c-0.2-0.1-0.5,0.1-0.5,0.3l-0.1,0.5c-0.1,0.2,0.1,0.5,0.3,0.5c0,0,0.4,0.1,0.5-0.3l0.1-0.5      C26.5,17.5,26.4,17.3,26.1,17.2z"/><path d="M26.7,15.4c-0.2-0.1-0.5,0.1-0.5,0.3L26,16.1c-0.1,0.2,0.1,0.5,0.3,0.5c0,0,0.4,0.1,0.5-0.3l0.1-0.5      C27,15.7,26.9,15.4,26.7,15.4z"/><path d="M25.6,19c-0.2-0.1-0.5,0.1-0.5,0.3L25,19.5c-0.1,0.2,0.1,0.5,0.3,0.5c0,0,0.4,0.1,0.5-0.3l0.1-0.2      C26,19.3,25.8,19.1,25.6,19z"/></g><g><path d="M33.7,10.1c0.2-0.1,0.5,0.1,0.5,0.3l0.1,0.2c0.1,0.2-0.1,0.5-0.3,0.5c0,0-0.4,0.1-0.5-0.3l-0.1-0.2      C33.3,10.4,33.4,10.2,33.7,10.1z"/><path d="M34.7,13.5c0.2-0.1,0.5,0.1,0.5,0.3l0.1,0.5c0.1,0.2-0.1,0.5-0.3,0.5c0,0-0.4,0.1-0.5-0.3l-0.1-0.5      C34.3,13.8,34.4,13.6,34.7,13.5z"/><path d="M34.1,11.7c0.2-0.1,0.5,0.1,0.5,0.3l0.1,0.5c0.1,0.2-0.1,0.5-0.3,0.5c0,0-0.4,0.1-0.5-0.3l-0.1-0.5      C33.8,12,33.9,11.8,34.1,11.7z"/><path d="M35.7,17.2c0.2-0.1,0.5,0.1,0.5,0.3l0.1,0.5c0.1,0.2-0.1,0.5-0.3,0.5c0,0-0.4,0.1-0.5-0.3l-0.1-0.5      C35.4,17.5,35.5,17.3,35.7,17.2z"/><path d="M35.2,15.4c0.2-0.1,0.5,0.1,0.5,0.3l0.1,0.5c0.1,0.2-0.1,0.5-0.3,0.5c0,0-0.4,0.1-0.5-0.3l-0.1-0.5      C34.8,15.7,35,15.4,35.2,15.4z"/><path d="M36.3,19c0.2-0.1,0.5,0.1,0.5,0.3l0.1,0.2c0.1,0.2-0.1,0.5-0.3,0.5c0,0-0.4,0.1-0.5-0.3L36,19.6      C35.9,19.3,36,19.1,36.3,19z"/></g><g><path d="M30,10.1c-0.2,0-0.4,0.2-0.5,0.4l0,0.2c0,0.2,0.1,0.4,0.4,0.5c0,0,0.4,0,0.5-0.4l0-0.2C30.4,10.3,30.3,10.1,30,10.1z"/><path d="M29.7,13.5c-0.2,0-0.4,0.2-0.5,0.4l0,0.5c0,0.2,0.1,0.4,0.4,0.5c0,0,0.4,0,0.5-0.4l0-0.5C30.1,13.8,29.9,13.6,29.7,13.5      z"/><path d="M29.9,11.7c-0.2,0-0.4,0.2-0.5,0.4l0,0.5c0,0.2,0.1,0.4,0.4,0.5c0,0,0.4,0,0.5-0.4l0-0.5C30.3,11.9,30.1,11.7,29.9,11.7      z"/><path d="M29.3,17.2c-0.2,0-0.4,0.2-0.5,0.4l0,0.5c0,0.2,0.1,0.4,0.4,0.5c0,0,0.4,0,0.5-0.4l0-0.5C29.7,17.5,29.6,17.3,29.3,17.2      z"/><path d="M29.5,15.4c-0.2,0-0.4,0.2-0.5,0.4l0,0.5c0,0.2,0.1,0.4,0.4,0.5c0,0,0.4,0,0.5-0.4l0-0.5C29.9,15.6,29.8,15.4,29.5,15.4      z"/><path d="M29.2,19.1c-0.2,0-0.4,0.1-0.5,0.4l0,0.2c0,0.2,0.1,0.4,0.4,0.5c0,0,0.4,0,0.5-0.4l0-0.2C29.6,19.3,29.4,19.1,29.2,19.1      z"/></g><g><path d="M31.8,10.1c0.2,0,0.5,0.2,0.5,0.4l0,0.2c0,0.2-0.2,0.4-0.4,0.5c0,0-0.4,0-0.5-0.4l0-0.2C31.4,10.3,31.6,10.1,31.8,10.1z      "/><path d="M32.2,13.5c0.2,0,0.5,0.2,0.5,0.4l0,0.5c0,0.2-0.2,0.4-0.4,0.5c0,0-0.4,0-0.5-0.4l0-0.5C31.8,13.8,31.9,13.6,32.2,13.5z      "/><path d="M32,11.7c0.2,0,0.5,0.2,0.5,0.4l0,0.5c0,0.2-0.2,0.4-0.4,0.5c0,0-0.4,0-0.5-0.4l0-0.5C31.6,11.9,31.8,11.7,32,11.7z"/><path d="M32.5,17.2c0.2,0,0.5,0.2,0.5,0.4l0,0.5c0,0.2-0.2,0.4-0.4,0.5c0,0-0.4,0-0.5-0.4l0-0.5C32.1,17.4,32.3,17.2,32.5,17.2z      "/><path d="M32.3,15.4c0.2,0,0.5,0.2,0.5,0.4l0,0.5c0,0.2-0.2,0.4-0.4,0.5c0,0-0.4,0-0.5-0.4l0-0.5C31.9,15.6,32.1,15.4,32.3,15.4z      "/><path d="M32.7,19.1c0.2,0,0.5,0.2,0.5,0.4l0,0.2c0,0.2-0.2,0.4-0.4,0.5c0,0-0.4,0-0.5-0.4l0-0.2C32.3,19.3,32.5,19.1,32.7,19.1z      "/></g><path d="M34,11.2c0.2-0.1,0.4-0.3,0.3-0.5l-0.1-0.2c-0.1-0.2-0.3-0.4-0.5-0.3c-0.2,0.1-0.4,0.3-0.3,0.5l0.1,0.2     c0.1,0.2,0.2,0.3,0.4,0.3C33.9,11.2,33.9,11.2,34,11.2z"/><path d="M35,14.8c0.2-0.1,0.4-0.3,0.3-0.5l-0.1-0.5c-0.1-0.2-0.3-0.4-0.5-0.3c-0.2,0.1-0.4,0.3-0.3,0.5l0.1,0.5     c0.1,0.2,0.2,0.3,0.4,0.3C35,14.8,35,14.8,35,14.8z"/></g></g></g></svg>