<?xml version="1.0" ?><svg height="32px" id="Layer_1" style="enable-background:new 0 0 32 32;" version="1.1" viewBox="0 0 32 32" width="32px" xml:space="preserve" xmlns="http://www.w3.org/2000/svg" xmlns:cc="http://creativecommons.org/ns#" xmlns:dc="http://purl.org/dc/elements/1.1/" xmlns:inkscape="http://www.inkscape.org/namespaces/inkscape" xmlns:rdf="http://www.w3.org/1999/02/22-rdf-syntax-ns#" xmlns:sodipodi="http://sodipodi.sourceforge.net/DTD/sodipodi-0.dtd" xmlns:svg="http://www.w3.org/2000/svg"><defs id="defs10"/><style id="style3" type="text/css">
	.st0{fill:none;stroke:#000000;stroke-width:3;stroke-linecap:round;stroke-linejoin:round;stroke-miterlimit:10;}
	.st1{stroke:#000000;stroke-width:4;stroke-linecap:round;stroke-linejoin:round;stroke-miterlimit:10;}
	.st2{fill:none;stroke:#000000;stroke-width:2;stroke-linecap:round;stroke-linejoin:round;stroke-miterlimit:10;}
	.st3{stroke:#000000;stroke-width:2;stroke-linecap:round;stroke-linejoin:round;stroke-miterlimit:10;}
</style><path d="M 15.507812 0 A 3 3 0 0 0 12.507812 3 A 3 3 0 0 0 15.507812 6 A 3 3 0 0 0 18.507812 3 A 3 3 0 0 0 15.507812 0 z M 15.501953 6.9609375 C 15.459903 6.9612427 15.417362 6.96485 15.375 6.96875 C 15.31598 6.97412 15.257202 6.9818726 15.199219 6.9941406 C 15.182069 6.9978006 15.165587 6.9976731 15.148438 7.0019531 L 8.7519531 8.5859375 C 8.3154297 8.6943359 7.9506836 8.991211 7.7578125 9.3964844 L 5.6367188 13.855469 C 5.2807617 14.603516 5.5976562 15.497071 6.3457031 15.853516 C 6.5537109 15.952149 6.7739258 16 6.9902344 16 C 7.5507813 16 8.0888672 15.68457 8.3457031 15.144531 L 10.162109 11.326172 L 13.507812 10.498047 L 13.507812 18.228516 L 11.236328 24.287109 L 7.78125 22.212891 C 7.0712891 21.785157 6.1489259 22.018556 5.7226562 22.728516 C 5.2963867 23.438477 5.5263671 24.361327 6.2363281 24.787109 L 11.236328 27.787109 C 11.472168 27.92871 11.739257 28 12.007812 28 C 12.174316 28 12.343261 27.972656 12.503906 27.916016 C 12.924316 27.769531 13.257812 27.444336 13.414062 27.027344 L 15.304688 21.980469 C 15.310187 21.98108 15.316706 21.979969 15.322266 21.980469 L 18.609375 25.642578 L 19.533203 30.765625 C 19.66406 31.490239 20.296387 32 21.007812 32 C 21.096193 32 21.185059 31.992203 21.275391 31.976562 C 22.090332 31.829103 22.631348 31.047852 22.484375 30.232422 L 21.484375 24.691406 C 21.435055 24.417969 21.310547 24.162109 21.125 23.955078 L 17.507812 19.925781 L 17.507812 11.765625 L 20.179688 13.707031 C 20.440918 13.897461 20.749512 13.994141 21.060547 13.994141 C 21.291504 13.994141 21.524902 13.940424 21.738281 13.832031 L 25.685547 11.837891 C 26.425294 11.463868 26.721191 10.564454 26.347656 9.8242188 C 25.973633 9.084961 25.071289 8.7871094 24.332031 9.1601562 L 21.203125 10.742188 L 17.017578 7.7011719 C 16.542351 7.3760743 16.256459 7.1238956 15.935547 7.0253906 C 15.888717 7.0110146 15.840641 6.9974973 15.792969 6.9882812 C 15.747739 6.9794912 15.702514 6.9752801 15.65625 6.9707031 C 15.60413 6.9655731 15.554077 6.9606275 15.501953 6.9609375 z " id="XMLID_144_"/></svg>