<?xml version="1.0" ?><!DOCTYPE svg  PUBLIC '-//W3C//DTD SVG 1.1//EN'  'http://www.w3.org/Graphics/SVG/1.1/DTD/svg11.dtd'><svg enable-background="new 0 0 512 512" height="512px" id="plumbing_icon" version="1.1" viewBox="0 0 512 512" width="512px" xml:space="preserve" xmlns="http://www.w3.org/2000/svg" xmlns:xlink="http://www.w3.org/1999/xlink"><g><g id="XMLID_72_"><g><path d="M309.82,85.886c2.601,2.598,4.053,6.122,4.053,9.777c0,3.699-1.452,7.223-4.053,9.777     c-2.598,2.599-6.122,4.097-9.775,4.053c-3.655,0.044-7.18-1.454-9.78-4.053c-2.598-2.554-4.05-6.078-4.05-9.777     c0-3.655,1.452-7.179,4.05-9.777c2.601-2.556,6.125-4.053,9.78-4.053C303.698,81.833,307.223,83.33,309.82,85.886z" fill="#1D1D1B"/><rect fill="#1D1D1B" height="35.015" width="29.244" x="112.951" y="78.177"/><path d="M346.246,332.919c0.131-23.693-9.602-47.123-26.429-63.816c-16.692-16.823-40.12-26.557-63.815-26.425     c-23.697-0.132-47.083,9.602-63.775,26.425c-16.824,16.693-26.557,40.123-26.425,63.816c-0.044,3.656,0.265,7.313,0.705,10.923     c4.272-1.98,8.588-3.171,12.772-3.873c10.57-1.721,20.392-0.884,29.772,0.614c4.669,0.793,9.249,1.809,13.742,2.952     c4.536,1.144,8.984,2.51,13.036,3.701c8.325,2.463,16.649,4.885,24.93,7.043c16.47,4.23,33.118,7.753,48.532,7.005     c7.665-0.398,14.8-1.984,21.187-5.064c5.506-2.642,10.438-6.474,14.885-11.188C345.892,341.025,346.246,336.974,346.246,332.919z      M335.234,253.686c20.875,20.66,32.986,49.858,32.813,79.233c0.174,29.336-11.938,58.578-32.813,79.232     c-20.612,20.835-49.854,32.99-79.232,32.812c-29.333,0.179-58.578-11.977-79.234-32.812     c-20.833-20.654-32.988-49.896-32.812-79.232c-0.176-29.375,11.979-58.573,32.812-79.233     c20.656-20.876,49.9-32.987,79.234-32.812C285.38,220.699,314.622,232.81,335.234,253.686z" fill="#1D1D1B"/><rect fill="#1D1D1B" height="35.015" width="29.244" x="198.261" y="78.177"/><path d="M401.694,95.663c0.044,3.655-1.454,7.223-4.051,9.777c-2.555,2.599-6.077,4.053-9.78,4.053     c-3.655,0-7.18-1.454-9.73-4.053c-2.598-2.554-4.096-6.122-4.055-9.777c-0.041-3.655,1.457-7.179,4.055-9.777     c2.551-2.556,6.075-4.053,9.73-4.053c3.703,0,7.226,1.498,9.78,4.053C400.24,88.483,401.738,92.007,401.694,95.663z" fill="#1D1D1B"/><path d="M164.041,134.992v-39.33V56.376H91.148v78.616H164.041z M176.461,56.376v78.616h72.89v-39.33V56.376     H176.461z M125.149,332.919v-25.411H91.501v50.827h33.648V332.919z M456.395,256.021V178.64H55.651v150.845h29.024v-28.804     h47.301v32.238v32.196H84.675v-28.803H55.651v143.887h400.743V256.021z M478.194,10v246.021V502H33.806V10H478.194z      M413.101,120.899c6.608-6.562,10.481-15.899,10.44-25.236c0.041-9.292-3.832-18.63-10.44-25.193     c-6.562-6.605-15.9-10.481-25.237-10.438c-9.292-0.044-18.629,3.833-25.191,10.438c-6.606,6.563-10.482,15.9-10.438,25.193     c-0.044,9.337,3.832,18.675,10.438,25.236c6.563,6.607,15.899,10.481,25.191,10.438     C397.2,131.38,406.539,127.506,413.101,120.899z M325.234,120.899c6.653-6.562,10.485-15.899,10.438-25.236     c0.047-9.292-3.785-18.63-10.438-25.193c-6.518-6.605-15.896-10.481-25.189-10.438c-9.339-0.044-18.674,3.833-25.238,10.438     c-6.606,6.563-10.482,15.9-10.438,25.193c-0.044,9.337,3.832,18.675,10.438,25.236c6.564,6.607,15.899,10.481,25.238,10.438     C309.338,131.38,318.717,127.506,325.234,120.899z" fill="#1D1D1B"/></g></g></g></svg>