<?xml version="1.0" ?><!DOCTYPE svg  PUBLIC '-//W3C//DTD SVG 1.1//EN'  'http://www.w3.org/Graphics/SVG/1.1/DTD/svg11.dtd'><svg enable-background="new 0 0 24 24" height="24px" id="Layer_1" version="1.1" viewBox="0 0 24 24" width="24px" xml:space="preserve" xmlns="http://www.w3.org/2000/svg" xmlns:xlink="http://www.w3.org/1999/xlink"><g><g><g><rect height="0.9" width="2.5" x="3.3" y="19.4"/></g><g><rect height="0.9" width="2.5" x="17.7" y="19.4"/></g></g><g><path d="M12.9,8.6l0.3-0.3L13.8,9l-0.3,0.3c-0.2,0.3-0.4,0.6-0.4,1s0.2,0.7,0.4,1l0.3,0.3l0,0c0.3,0.4,0.4,0.8,0.4,1.2    c0,0.6-0.2,1.2-0.6,1.6l-0.3,0.3l-0.7-0.6l0.4-0.3c0.2-0.3,0.4-0.6,0.4-1c0-0.4-0.2-0.7-0.4-1l-0.4-0.3l0,0    c-0.2-0.4-0.4-0.8-0.4-1.3C12.2,9.6,12.5,9.1,12.9,8.6z M10,8.6l0.3-0.3L10.9,9l-0.3,0.3c-0.5,0.5-0.5,1.4,0,1.9l0.3,0.3l0,0    c0.3,0.4,0.4,0.8,0.4,1.2c0,0.6-0.3,1.2-0.7,1.6l-0.3,0.3l-0.6-0.6l0.3-0.3c0.2-0.3,0.4-0.6,0.4-1c0-0.4-0.2-0.7-0.4-1l-0.3-0.3    l0,0C9.1,10.6,9.2,9.4,10,8.6z M7.1,8.6l0.3-0.3L8,9L7.7,9.3c-0.2,0.3-0.4,0.6-0.4,1s0.2,0.7,0.4,1L8,11.5l0,0    c0.2,0.4,0.4,0.8,0.4,1.3c0,0.6-0.3,1.2-0.7,1.6l-0.3,0.3l-0.6-0.6l0.3-0.3c0.2-0.3,0.4-0.6,0.4-1c0-0.4-0.2-0.7-0.4-1l-0.3-0.3    l0,0c-0.3-0.4-0.4-0.8-0.4-1.3C6.4,9.6,6.6,9.1,7.1,8.6z"/><path d="M20.9,4H2.5C1.7,4,1,4.7,1,5.6v11.9C1,18.3,1.7,19,2.5,19h18.3c0.9,0,1.6-0.7,1.6-1.6V5.6C22.5,4.7,21.8,4,20.9,4z     M17.3,16.2c0,0.2-0.2,0.4-0.5,0.4h-13c-0.2,0-0.5-0.2-0.5-0.4V6.8c0-0.3,0.2-0.5,0.5-0.5h13c0.2,0,0.5,0.2,0.5,0.5V16.2z     M20.2,16.5H19c-0.3,0-0.5-0.2-0.5-0.5s0.2-0.5,0.5-0.5h1.2c0.2,0,0.5,0.2,0.5,0.5S20.4,16.5,20.2,16.5z M20.2,15H19    c-0.3,0-0.5-0.2-0.5-0.5c0-0.3,0.2-0.5,0.5-0.5h1.2c0.2,0,0.5,0.2,0.5,0.5C20.6,14.8,20.4,15,20.2,15z M20.2,11.1V12H19v-0.9H20.2    z M19,10.5V9.6h1.2v0.9H19z M20.2,12.6v0.9H19v-0.9H20.2z M19.6,9c-0.7,0-1.4-0.6-1.4-1.3c0-0.8,0.6-1.4,1.4-1.4s1.4,0.6,1.4,1.4    C20.9,8.4,20.3,9,19.6,9z"/></g></g></svg>