<?xml version="1.0" ?><!DOCTYPE svg  PUBLIC '-//W3C//DTD SVG 1.1//EN'  'http://www.w3.org/Graphics/SVG/1.1/DTD/svg11.dtd'><svg height="512px" style="shape-rendering:geometricPrecision; text-rendering:geometricPrecision; image-rendering:optimizeQuality; fill-rule:evenodd; clip-rule:evenodd" version="1.1" viewBox="0 0 512000 512000" width="512px" xml:space="preserve" xmlns="http://www.w3.org/2000/svg" xmlns:xlink="http://www.w3.org/1999/xlink"><defs><style type="text/css">
   <![CDATA[
    .fil0 {fill:#2B2A29}
   ]]>
  </style></defs><g id="Layer_x0020_1"><path class="fil0" d="M171631 230605c14026,0 25395,11369 25395,25395 0,14027 -11369,25396 -25395,25396 -14027,0 -25396,-11369 -25396,-25396 0,-14026 11369,-25395 25396,-25395zm84369 0c14026,0 25395,11369 25395,25395 0,14027 -11369,25396 -25395,25396 -14027,0 -25396,-11369 -25396,-25396 0,-14026 11369,-25395 25396,-25395zm84368 0c14027,0 25396,11369 25396,25395 0,14027 -11369,25396 -25396,25396 -14026,0 -25395,-11369 -25395,-25396 0,-14026 11369,-25395 25395,-25395z"/></g></svg>