<?xml version="1.0" ?><!DOCTYPE svg  PUBLIC '-//W3C//DTD SVG 1.1//EN'  'http://www.w3.org/Graphics/SVG/1.1/DTD/svg11.dtd'><svg enable-background="new 0 0 24 24" id="Layer_1" version="1.1" viewBox="0 0 24 24" xml:space="preserve" xmlns="http://www.w3.org/2000/svg" xmlns:xlink="http://www.w3.org/1999/xlink"><g><polygon points="21,15 3,15 3,17 6.5,17 4,22 6.3,22 8.8,17 15.2,17 17.7,22 20,22 17.5,17 21,17  "/><path d="M8,7l1,6h6l1-6h-3V2h-2v3.8C11,4.1,9.7,2.9,8,3c-0.1,1.8,1.2,3.1,3,3v1H8z"/><path d="M16,3c-1.8-0.1-3.1,1.2-3,3C14.8,6.1,16.1,4.8,16,3z"/></g></svg>