<?xml version="1.0" ?><!DOCTYPE svg  PUBLIC '-//W3C//DTD SVG 1.1//EN'  'http://www.w3.org/Graphics/SVG/1.1/DTD/svg11.dtd'><svg height="8.0433mm" style="shape-rendering:geometricPrecision; text-rendering:geometricPrecision; image-rendering:optimizeQuality; fill-rule:evenodd; clip-rule:evenodd" version="1.1" viewBox="0 0 123 255" width="3.887mm" xml:space="preserve" xmlns="http://www.w3.org/2000/svg" xmlns:xlink="http://www.w3.org/1999/xlink"><defs><style type="text/css">
   <![CDATA[
    .fil0 {fill:black;fill-rule:nonzero}
   ]]>
  </style></defs><g id="Layer_x0020_1"><path class="fil0" d="M5 0l113 0c3,0 5,2 5,5l0 87 0 1 0 0 0 157c0,3 -2,5 -5,5l-113 0c-3,0 -5,-2 -5,-5l0 -157 0 0 0 0 0 -88c0,-3 2,-5 5,-5zm88 112c0,-3 2,-5 5,-5 3,0 5,2 5,5l0 58c0,3 -2,5 -5,5 -3,0 -5,-2 -5,-5l0 -58zm1 -87c0,-3 2,-5 5,-5 3,0 6,2 6,5l0 31c0,3 -3,5 -6,5 -3,0 -5,-2 -5,-5l0 -31zm-84 62l103 0 0 -77 -103 0 0 77zm103 11l-103 0 0 147 103 0 0 -147z"/></g></svg>