<?xml version="1.0" ?><svg id="Layer_1" style="enable-background:new 0 0 512 512;" version="1.1" viewBox="0 0 512 512" xml:space="preserve" xmlns="http://www.w3.org/2000/svg" xmlns:xlink="http://www.w3.org/1999/xlink"><path d="M429,55.5L429,55.5c-120.2-66-225.8-66-346,0l0,0c-15.6,8.6-25.4,25-25.4,42.8v304.4  c0,24.7,20,44.8,44.8,44.8h5.3V489c0,9.4,7.6,17,17,17h31.9c9.4,0,17-7.6,17-17v-41.6h164.7V489c0,9.4,7.6,17,17,17h31.9  c9.4,0,17-7.6,17-17v-41.6h5.3c24.7,0,44.8-20,44.8-44.8V98.3C454.3,80.5,444.6,64,429,55.5z M194.8,60.1h122.5  c9.2,0,16.6,7.4,16.6,16.6c0,9.2-7.4,16.6-16.6,16.6H194.8c-9.2,0-16.6-7.4-16.6-16.6C178.1,67.5,185.6,60.1,194.8,60.1z   M86.5,238.4V134.6h158v103.8H86.5z M133.1,315.4c16.9,0,30.6,13.7,30.6,30.6c0,16.9-13.7,30.6-30.6,30.6s-30.6-13.7-30.6-30.6  C102.5,329.1,116.2,315.4,133.1,315.4z M334.4,384.9H177.6v-16h156.7V384.9z M334.4,354H177.6v-16h156.7V354z M334.4,323H177.6v-16  h156.7V323z M378.9,376.6c-16.9,0-30.6-13.7-30.6-30.6c0-16.9,13.7-30.6,30.6-30.6c16.9,0,30.6,13.7,30.6,30.6  C409.5,362.9,395.8,376.6,378.9,376.6z M425.5,238.4h-158V134.6h158V238.4z" id="XMLID_464_"/></svg>