<?xml version="1.0" ?><!DOCTYPE svg  PUBLIC '-//W3C//DTD SVG 1.1//EN'  'http://www.w3.org/Graphics/SVG/1.1/DTD/svg11.dtd'><svg enable-background="new 0 0 48 48" id="Layer_1" version="1.1" viewBox="0 0 48 48" xml:space="preserve" xmlns="http://www.w3.org/2000/svg" xmlns:xlink="http://www.w3.org/1999/xlink"><g><path d="M34.7,20.5c1.2,0,2.3-0.4,3.2-1.2c2.1-1.8,2.4-4.9,0.6-7c-1-1.1-2.4-1.8-3.8-1.8c-1.2,0-2.3,0.4-3.2,1.2   c-1,0.9-1.7,2.1-1.8,3.4c-0.1,1.3,0.3,2.6,1.1,3.7C31.8,19.9,33.2,20.5,34.7,20.5z"/><path d="M9.8,30.3c0.1,0,0.1,0,0.2,0l0,0l0.6-0.1c1.5-0.2,3.2-0.4,4.5-0.1c0.4,0.1,0.7,0.2,1.1,0.3c0.7,0.2,1.5,0.4,2.3,0.5   c0.1,0,0.2,0,0.3,0l0,0c0,0,0,0,0,0c0.9,0,1.7-0.2,2.5-0.4c0.3-0.1,0.6-0.2,0.8-0.3c0.8-0.3,1.6-0.5,2.4-0.6c0.2,0,0.5,0,0.7,0   c0.1,0,0.1,0,0.2,0c0.2,0,0.3,0,0.5,0c0.2,0,0.5,0.1,0.8,0.1l0.4,0.1c0.2,0,0.4,0.1,0.6,0.1c1.3,0.3,2.7,0.6,4.2,0.3   c0.6-0.1,1.1-0.3,1.6-0.4c0.7-0.2,1.3-0.4,1.9-0.4c0.5,0,1.1,0.2,1.7,0.4c0.4,0.1,0.9,0.3,1.4,0.4c0.9,0.2,1.7,0.2,2.5,0.2l6.2-0.1   l0-2l-6.2,0.1c-0.8,0-1.5,0-2.1-0.1c-0.4-0.1-0.7-0.2-1.1-0.3c-0.7-0.2-1.4-0.5-2.3-0.5c-0.9,0-1.8,0.2-2.6,0.5   c-0.5,0.1-0.9,0.3-1.3,0.4c-0.8,0.1-1.7,0-2.6-0.1c0.8-0.9,1.3-2,1.4-3.3c0.1-1.6-0.3-3.1-1.3-4.3l-0.3-0.4   c-1.1-1.3-2.8-2.1-4.5-2.1c-0.5,0-1.1,0.1-1.6,0.2l-4.9-5.8l4.7-5.8l-1.6-1.3l-5.8,7.1l5.7,6.7c-0.1,0.1-0.2,0.1-0.3,0.2L9.9,28.2   c-0.1,0-0.3,0-0.4,0.1c-1.6,0.2-3.1,0.5-4.6,0.3c-1.1-0.1-2.2-0.5-3.2-1.1l-1,1.7c1.2,0.7,2.6,1.2,4,1.3   C6.5,30.8,8.2,30.5,9.8,30.3z"/><path d="M9.8,36.1c1.8-0.3,3.6-0.5,5.2-0.2c0.4,0.1,0.7,0.2,1.1,0.3c0.7,0.2,1.5,0.4,2.3,0.5c0.1,0,0.2,0,0.3,0   c1.2,0,2.3-0.4,3.4-0.7c0.8-0.3,1.6-0.5,2.4-0.6c1-0.1,2.1,0.1,3.2,0.4c1.3,0.3,2.7,0.6,4.2,0.3c0.6-0.1,1.1-0.3,1.6-0.4   c0.7-0.2,1.3-0.4,1.9-0.4c0.5,0,1.1,0.2,1.7,0.4c0.4,0.1,0.9,0.3,1.4,0.4c0.9,0.2,1.7,0.2,2.5,0.2l6.2-0.1l0-2l-6.2,0.1   c-0.8,0-1.5,0-2.1-0.1c-0.4-0.1-0.7-0.2-1.1-0.3c-0.7-0.2-1.4-0.5-2.3-0.5c-0.9,0-1.8,0.2-2.6,0.5c-0.5,0.1-0.9,0.3-1.3,0.4   c-1.1,0.2-2.3-0.1-3.5-0.3c-1.2-0.3-2.5-0.5-3.8-0.4c-1,0.1-1.9,0.4-2.8,0.7c-1,0.3-2,0.7-2.9,0.6c-0.6,0-1.2-0.2-1.8-0.4   c-0.4-0.1-0.8-0.2-1.3-0.3c-2-0.4-4-0.1-5.9,0.2c-1.6,0.2-3.1,0.5-4.6,0.3c-1.1-0.1-2.2-0.5-3.2-1.1l-1,1.7c1.2,0.7,2.6,1.2,4,1.3   C6.5,36.6,8.2,36.4,9.8,36.1z"/><path d="M41.1,40.1c-0.8,0-1.5,0-2.1-0.1c-0.4-0.1-0.7-0.2-1.1-0.3c-0.7-0.2-1.4-0.5-2.3-0.5c-0.9,0-1.8,0.2-2.6,0.5   c-0.5,0.1-0.9,0.3-1.3,0.4c-1.1,0.2-2.3-0.1-3.5-0.3c-1.2-0.3-2.5-0.5-3.8-0.4c-1,0.1-1.9,0.4-2.8,0.7c-1,0.3-2,0.7-2.9,0.6   c-0.6,0-1.2-0.2-1.8-0.4c-0.4-0.1-0.8-0.2-1.3-0.3c-2-0.4-4-0.1-5.9,0.2c-1.6,0.2-3.1,0.5-4.6,0.3c-1.1-0.1-2.2-0.5-3.2-1.1l-1,1.7   c1.2,0.7,2.6,1.2,4,1.3c1.7,0.2,3.5-0.1,5.1-0.3c1.8-0.3,3.6-0.5,5.2-0.2c0.4,0.1,0.7,0.2,1.1,0.3c0.7,0.2,1.5,0.4,2.3,0.5   c0.1,0,0.2,0,0.3,0c1.2,0,2.3-0.4,3.4-0.7c0.8-0.3,1.6-0.5,2.4-0.6c1-0.1,2.1,0.1,3.2,0.4c1.3,0.3,2.7,0.6,4.2,0.3   c0.6-0.1,1.1-0.3,1.6-0.4c0.7-0.2,1.3-0.4,1.9-0.4c0.5,0,1.1,0.2,1.7,0.4c0.4,0.1,0.9,0.3,1.4,0.4c0.9,0.2,1.7,0.2,2.5,0.2l6.2-0.1   l0-2L41.1,40.1z"/></g></svg>