<?xml version="1.0" ?><!DOCTYPE svg  PUBLIC '-//W3C//DTD SVG 1.1//EN'  'http://www.w3.org/Graphics/SVG/1.1/DTD/svg11.dtd'><svg height="40px" id="co_x5F_navigation" style="enable-background:new 0 0 40 40;" version="1.1" viewBox="0 0 40 40" width="40px" xml:space="preserve" xmlns="http://www.w3.org/2000/svg" xmlns:xlink="http://www.w3.org/1999/xlink"><path d="M35.671,22.982h-0.359c-0.726,0-1.32-0.593-1.32-1.32v-8.008  c0-0.637-0.999-0.63-0.999,0V34c0,1.089-0.892,1.98-1.98,1.98h-0.039c-1.091,0-1.979-0.89-1.979-1.98V23.422  c0-0.242-0.198-0.44-0.44-0.44h-0.12c-0.242,0-0.44,0.198-0.44,0.44V34c0,1.09-0.889,1.98-1.979,1.98h-0.034  c-0.546,0-1.017-0.195-1.401-0.582c-0.386-0.387-0.58-0.857-0.578-1.404l0.019-20.879c0.002-0.461-0.446-0.753-0.831-0.629  l-4.432,1.422c-0.608,0.195-1.207,0.132-1.763-0.185l-4.958-2.833c-0.654-0.373-0.863-1.218-0.461-1.853l0.142-0.224  c-0.081,0.128,0.621-1.096,1.771-0.439l4.566,2.61l5.321-1.774c0.472-0.157,0.896-0.226,1.392-0.226h2.14  c-1.366-0.609-2.319-1.979-2.319-3.571c0-2.159,1.749-3.909,3.908-3.909c2.157,0,3.907,1.75,3.907,3.909  c0,1.592-0.953,2.962-2.319,3.571h3.391c1.938,0,3.52,1.581,3.52,3.52v9.157C36.991,22.39,36.398,22.982,35.671,22.982z   M12.363,12.525c0.524,0.303,0.705,0.978,0.402,1.502c0,0-0.75,1.076-0.627,0.969c-0.344,0.302-0.857,0.368-1.275,0.126  l-1.558-0.899C8.78,13.92,8.6,13.246,8.902,12.721l0.399-0.692c0.508-0.881,1.425-0.447,1.503-0.402L12.363,12.525z M20.004,17.519  v0.75c0,0.303-0.247,0.738-0.551,0.738h-0.754l-2.086,15.616c0,0.002-0.29,1.346-1.652,1.346H7.772  c-1.361,0-1.402-1.346-1.402-1.346L4.284,19.007H3.561c-0.302,0-0.549-0.247-0.549-0.55v-0.938c0-0.303,0.247-0.55,0.549-0.55  h15.893C19.757,16.969,20.004,17.216,20.004,17.519z M14.637,33.994h0.486c0.111,0,0.204-0.082,0.219-0.192l0.08-0.572  c0.017-0.131-0.086-0.247-0.219-0.247h-0.525c-0.116,0-0.213,0.089-0.22,0.206l-0.041,0.572  C14.408,33.888,14.509,33.994,14.637,33.994z M11.995,33.774c0,0.219,0.226,0.22,0.22,0.22h0.662c0.116,0,0.212-0.09,0.219-0.206  l0.041-0.571c0.008-0.126-0.092-0.234-0.22-0.234h-0.702c0.006,0-0.22,0.001-0.22,0.22V33.774z M11.995,31.774  c0,0.219,0.226,0.22,0.22,0.22h0.662c0.116,0,0.212-0.09,0.219-0.206l0.041-0.571c0.008-0.126-0.092-0.234-0.22-0.234h-0.702  c0.006,0-0.22,0.001-0.22,0.22V31.774z M11.995,29.787c0,0.221,0.226,0.22,0.22,0.22h0.815c0.115,0,0.212-0.09,0.22-0.206  l0.048-0.565c0.009-0.125-0.094-0.234-0.22-0.234h-0.863c0.006,0-0.22,0.001-0.22,0.22V29.787z M11.995,27.775  c0,0.221,0.226,0.22,0.22,0.22h0.977c0.116,0,0.212-0.089,0.219-0.205l0.049-0.565c0.008-0.126-0.092-0.234-0.22-0.234h-1.024  c0.006,0-0.22,0.002-0.22,0.22V27.775z M11.995,25.795c0,0.221,0.226,0.22,0.22,0.22h1.137c0.116,0,0.213-0.09,0.22-0.205  l0.048-0.597c0.01-0.128-0.094-0.234-0.219-0.234h-1.186c0.006,0-0.22,0.002-0.22,0.22V25.795z M11.995,23.783  c0,0.218,0.226,0.22,0.22,0.22h1.299c0.115,0,0.211-0.09,0.219-0.207l0.049-0.595c0.007-0.128-0.093-0.235-0.22-0.235h-1.347  c0.006,0-0.22,0.002-0.22,0.22V23.783z M11.995,21.772c0,0.217,0.226,0.22,0.22,0.22h1.459c0.116,0,0.213-0.09,0.22-0.206  l0.048-0.565c0.009-0.126-0.094-0.234-0.219-0.234h-1.508c0.006,0-0.22,0.001-0.22,0.221V21.772z M9.888,33.788  c0.008,0.116,0.104,0.206,0.219,0.206h0.506c0.121,0,0.376-0.099,0.376-0.22v-0.572c0-0.122-0.255-0.22-0.376-0.22h-0.546  c-0.127,0-0.227,0.106-0.22,0.234L9.888,33.788z M9.888,31.788c0.008,0.116,0.104,0.206,0.219,0.206h0.506  c0.121,0,0.376-0.099,0.376-0.22v-0.572c0-0.122-0.255-0.22-0.376-0.22h-0.546c-0.127,0-0.227,0.106-0.22,0.234L9.888,31.788z   M9.734,29.801c0.014,0.202,0.212,0.206,0.22,0.206h0.658c0.121,0,0.376-0.099,0.376-0.22v-0.565c0-0.121-0.255-0.22-0.376-0.22  H9.905c0.155,0-0.24-0.058-0.219,0.234L9.734,29.801z M9.573,27.79c0.008,0.116,0.104,0.205,0.22,0.205h0.819  c0.121,0,0.376-0.098,0.376-0.22V27.21c0-0.121-0.255-0.22-0.376-0.22H9.745c-0.128,0-0.228,0.106-0.22,0.234L9.573,27.79z   M9.412,25.81c0.008,0.115,0.104,0.205,0.22,0.205h0.98c0.121,0,0.376-0.098,0.376-0.22v-0.596c0-0.122-0.255-0.22-0.376-0.22H9.583  c-0.127,0-0.228,0.106-0.219,0.234L9.412,25.81z M9.251,23.797c0.008,0.116,0.104,0.207,0.22,0.207h1.142  c0.121,0,0.376-0.099,0.376-0.22v-0.596c0-0.122-0.255-0.22-0.376-0.22H9.423c-0.128,0-0.228,0.107-0.22,0.235L9.251,23.797z   M9.09,21.786c0.008,0.116,0.104,0.206,0.22,0.206h1.303c0.121,0,0.376-0.099,0.376-0.22v-0.565c0-0.121-0.255-0.221-0.376-0.221  H9.261c-0.128,0-0.226,0.108-0.219,0.234L9.09,21.786z M7.539,19.181c-0.018-0.262-0.38-0.206-0.22-0.206H5.89  c-0.133,0-0.235,0.117-0.218,0.247l0.104,0.597c0.015,0.11,0.106,0.192,0.218,0.192h1.37h0.024c0.128,0,0.228-0.108,0.22-0.234  L7.539,19.181z M7.721,21.192c-0.008-0.116-0.104-0.206-0.219-0.206H6.154c-0.132,0-0.235,0.116-0.218,0.248l0.095,0.565  c0.015,0.111,0.107,0.193,0.219,0.193h1.299c0.128,0,0.228-0.106,0.22-0.234L7.721,21.192z M7.882,23.173  c-0.008-0.116-0.104-0.206-0.22-0.206H6.529c0,0-0.332,0.036-0.306,0.248l0.096,0.596C6.333,23.918,6.516,24,6.623,24.003h1.088  c0.125,0,0.228-0.109,0.219-0.234L7.882,23.173z M8.091,25.781l-0.048-0.597c-0.008-0.116-0.104-0.206-0.22-0.206H6.699  c-0.133,0-0.235,0.117-0.219,0.248l0.096,0.596c0.014,0.111,0.106,0.192,0.218,0.192h1.077C8.136,26.015,8.088,25.707,8.091,25.781z   M8.204,27.196c-0.014-0.217-0.246-0.206-0.22-0.206H6.986c-0.133,0-0.235,0.117-0.219,0.248l0.064,0.565  c0.015,0.111,0.106,0.192,0.218,0.192h0.983c0.016,0,0.03-0.001,0.046-0.004c0.063-0.013,0.184-0.085,0.173-0.229L8.204,27.196z   M8.364,29.207c-0.007-0.116-0.103-0.205-0.219-0.205H7.242c-0.026,0-0.246,0.029-0.218,0.248l0.058,0.511  c0,0,0.036,0.246,0.225,0.246h0.887c0.128,0,0.228-0.107,0.22-0.233L8.364,29.207z M8.526,31.188  c-0.008-0.116-0.104-0.206-0.22-0.206H7.53c-0.133,0-0.235,0.115-0.219,0.248l0.05,0.572c0.014,0.111,0.106,0.192,0.218,0.192h0.769  c0.125,0,0.228-0.106,0.219-0.234L8.526,31.188z M8.526,33.188c-0.008-0.116-0.104-0.206-0.22-0.206H7.78  c-0.133,0-0.235,0.115-0.219,0.248l0.081,0.572c0.014,0.111,0.106,0.192,0.218,0.192h0.487c0.125,0,0.228-0.106,0.219-0.234  L8.526,33.188z M10.988,19.195c0-0.121-0.255-0.22-0.376-0.22H9.08c-0.127,0-0.229,0.107-0.219,0.234l0.068,0.597  c0.007,0.116,0.103,0.206,0.219,0.206h1.464c0.121,0,0.377-0.098,0.377-0.22L10.988,19.195z M13.903,18.975h-1.688  c0.006,0-0.22,0.002-0.22,0.22v0.597c0,0.218,0.226,0.22,0.22,0.22h1.62c0.116,0,0.213-0.09,0.221-0.206l0.067-0.597  C14.131,19.082,14.031,18.975,13.903,18.975z M14.458,31.188l-0.041,0.572c-0.009,0.127,0.092,0.234,0.22,0.234h0.768  c0.111,0,0.204-0.082,0.219-0.192l0.08-0.572c0.017-0.131-0.086-0.247-0.219-0.247h-0.807  C14.562,30.982,14.465,31.071,14.458,31.188z M14.619,29.208l-0.049,0.564c-0.008,0.127,0.093,0.234,0.22,0.234h0.887  c0.111,0,0.204-0.082,0.219-0.192l0.064-0.566c0.028-0.218-0.192-0.247-0.219-0.247h-0.903  C14.722,29.002,14.627,29.092,14.619,29.208z M14.78,27.197l-0.048,0.564c-0.011,0.147,0.108,0.216,0.172,0.23  c0.015,0.002,0.03,0.004,0.047,0.004h0.982c0.111,0,0.204-0.082,0.219-0.191l0.063-0.566c0.017-0.13-0.085-0.247-0.218-0.247h-0.999  C15.025,26.99,14.794,26.978,14.78,27.197z M14.941,25.185l-0.049,0.596c0.005-0.075-0.046,0.234,0.22,0.234h1.078  c0.11,0,0.203-0.082,0.217-0.191l0.096-0.598c0.017-0.13-0.085-0.247-0.218-0.247h-1.124C15.044,24.978,14.948,25.068,14.941,25.185  z M15.103,23.173l-0.049,0.596c-0.009,0.125,0.092,0.234,0.22,0.234h1.079h0.102c0.107-0.004,0.196-0.084,0.21-0.193l0.096-0.596  c0.017-0.131-0.086-0.247-0.219-0.247h-1.22C15.206,22.967,15.109,23.057,15.103,23.173z M15.264,21.192l-0.049,0.565  c-0.008,0.128,0.092,0.234,0.22,0.234h1.299c0.111,0,0.204-0.082,0.219-0.191l0.096-0.566c0.017-0.13-0.086-0.248-0.219-0.248  h-1.346C15.366,20.986,15.271,21.077,15.264,21.192z M17.094,18.975h-1.43c-0.016,0-0.029,0-0.043,0.004  c-0.097,0.019-0.17,0.101-0.177,0.202l-0.068,0.597c-0.009,0.126,0.094,0.234,0.22,0.234h0.025h1.369  c0.111,0,0.204-0.082,0.219-0.192l0.104-0.597C17.329,19.092,17.227,18.975,17.094,18.975z" style="fill-rule:evenodd;clip-rule:evenodd;"/></svg>