<?xml version="1.0" ?><svg style="enable-background:new 0 0 512 512;" version="1.1" viewBox="0 0 512 512" xml:space="preserve" xmlns="http://www.w3.org/2000/svg" xmlns:xlink="http://www.w3.org/1999/xlink"><style type="text/css">
	.st0{fill-rule:evenodd;clip-rule:evenodd;fill:#231F20;}
	.st1{fill:#231F20;}
</style><g id="Guides_For_Artboard"/><g id="Layer_1"><path class="st1" d="M311.8,55.7c0,7.5-6.1,13.3-13.6,13.3c-7.5,0-13.6-5.8-13.6-13.3c0-8-3-15.2-8.3-20.5   c-5.3-5-12.5-8.3-20.5-8.3c-7.7,0-14.9,3.3-20.2,8.3c-5.3,5.3-8.3,12.5-8.3,20.5c0,6.6,2.2,12.7,6.1,17.7c3.9,5,9.4,8.6,15.8,10.2   c5.8,1.4,10.2,3.3,13.6,6.4c4.4,4.2,6.6,9.4,6.6,15.5v11.9L468.1,206c13,5.8,20.8,16.6,24.1,29.1c2.5,8.9,2.5,18.3,0.6,27.4   c-2.2,9.1-6.4,17.7-12.5,25.2c-9.4,11.1-23.2,18.6-40.7,18.6h-31v-25.8c0-0.3,0-0.8,0-1.1h31c8.9,0,15.8-3.9,20.2-9.1   c3.3-3.9,5.5-8.6,6.6-13.6c1.1-5,1.1-10,0-14.7c-1.4-5-4.4-9.1-9.1-11.4l-201.5-90l-201.2,90c-4.7,2.2-7.7,6.4-9.1,11.4   c-1.1,4.7-1.1,9.7,0,14.7c1.1,5,3.3,9.7,6.6,13.6c4.4,5.3,11.3,9.1,20.2,9.1h31c0,0.3,0,0.8,0,1.1v25.8h-31   c-17.4,0-31.3-7.5-40.7-18.6c-6.1-7.5-10.2-16.1-12.5-25.2c-1.9-9.1-1.9-18.6,0.6-27.4c3.3-12.5,11.1-23.3,24.1-29.1l198.7-88.6   v-7.8c-12.2-3-22.7-10.2-30.2-19.7c-7.5-9.4-12.2-21.3-12.2-34.3c0-15.5,6.4-29.4,16.3-39.3C226.8,6.1,240.6,0,255.9,0   c15.5,0,29.3,6.1,39.6,16.3C305.4,26.3,311.8,40.2,311.8,55.7L311.8,55.7z M139.3,262.8h233.3c9.7,0,18,8,18,17.7v213.8   c0,9.7-8.3,17.7-18,17.7H139.3c-9.7,0-18-8-18-17.7V280.5C121.4,270.8,129.7,262.8,139.3,262.8L139.3,262.8z" id="XMLID_1142_"/></g></svg>