<?xml version="1.0" ?><svg height="24" viewBox="0 0 24 24" width="24" xmlns="http://www.w3.org/2000/svg"><title/><g data-name="Layer 2" id="Layer_2"><g data-name="Layer 1" id="Layer_1-2"><rect fill="none" height="23" stroke="#000" stroke-linecap="round" stroke-linejoin="round" width="23" x="0.5" y="0.5"/><rect fill="none" height="12" stroke="#000" stroke-linecap="round" stroke-linejoin="round" width="3" x="0.5" y="0.5"/><rect fill="none" height="12" stroke="#000" stroke-linecap="round" stroke-linejoin="round" width="4" x="3.5" y="0.5"/><rect fill="none" height="12" stroke="#000" stroke-linecap="round" stroke-linejoin="round" width="4" x="7.5" y="0.5"/><rect fill="none" height="11" stroke="#000" stroke-linecap="round" stroke-linejoin="round" width="4" x="11.5" y="12.5"/><rect fill="none" height="11" stroke="#000" stroke-linecap="round" stroke-linejoin="round" width="4" x="15.5" y="12.5"/><rect fill="none" height="12" stroke="#000" stroke-linecap="round" stroke-linejoin="round" transform="translate(20 -15) rotate(90)" width="4" x="15.5" y="-3.5"/><rect fill="none" height="12" stroke="#000" stroke-linecap="round" stroke-linejoin="round" transform="translate(24 -11) rotate(90)" width="4" x="15.5" y="0.5"/><rect fill="none" height="12" stroke="#000" stroke-linecap="round" stroke-linejoin="round" transform="translate(28 -7) rotate(90)" width="4" x="15.5" y="4.5"/><rect fill="none" height="4" stroke="#000" stroke-linecap="round" stroke-linejoin="round" width="11" x="0.5" y="12.5"/><rect fill="none" height="11" stroke="#000" stroke-linecap="round" stroke-linejoin="round" transform="translate(24.5 12.5) rotate(90)" width="4" x="4" y="13"/><rect fill="none" height="3" stroke="#000" stroke-linecap="round" stroke-linejoin="round" width="11" x="0.5" y="20.5"/></g><g data-name="Layer 2" id="Layer_2-2"><rect fill="none" height="24" width="24"/></g></g></svg>